G75*
%MOIN*%
%OFA0B0*%
%FSLAX25Y25*%
%IPPOS*%
%LPD*%
%AMOC8*
5,1,8,0,0,1.08239X$1,22.5*
%
%ADD10C,0.00000*%
D10*
X0008889Y0001000D02*
X0393141Y0001000D01*
X0393343Y0001014D01*
X0393545Y0001034D01*
X0393746Y0001058D01*
X0393947Y0001087D01*
X0394147Y0001121D01*
X0394346Y0001160D01*
X0394544Y0001204D01*
X0394741Y0001252D01*
X0394936Y0001305D01*
X0395131Y0001363D01*
X0395323Y0001425D01*
X0395515Y0001493D01*
X0395704Y0001564D01*
X0395892Y0001641D01*
X0396078Y0001721D01*
X0396262Y0001807D01*
X0396444Y0001896D01*
X0396623Y0001990D01*
X0396801Y0002089D01*
X0396975Y0002191D01*
X0397148Y0002298D01*
X0397317Y0002409D01*
X0397484Y0002524D01*
X0397648Y0002643D01*
X0397810Y0002766D01*
X0397968Y0002893D01*
X0398123Y0003024D01*
X0398275Y0003158D01*
X0398423Y0003296D01*
X0398568Y0003437D01*
X0398710Y0003582D01*
X0398848Y0003731D01*
X0398983Y0003882D01*
X0399114Y0004037D01*
X0399241Y0004195D01*
X0399364Y0004356D01*
X0399483Y0004520D01*
X0399598Y0004687D01*
X0399710Y0004856D01*
X0399817Y0005028D01*
X0399920Y0005203D01*
X0400018Y0005380D01*
X0400113Y0005560D01*
X0400203Y0005741D01*
X0400288Y0005925D01*
X0400369Y0006111D01*
X0400446Y0006299D01*
X0400518Y0006488D01*
X0400585Y0006679D01*
X0400648Y0006872D01*
X0400706Y0007066D01*
X0400760Y0007262D01*
X0400808Y0007459D01*
X0400852Y0007657D01*
X0400891Y0007855D01*
X0400926Y0008055D01*
X0400955Y0008256D01*
X0400980Y0008457D01*
X0400999Y0008659D01*
X0401014Y0008861D01*
X0401024Y0009063D01*
X0401029Y0009266D01*
X0401029Y0009469D01*
X0401025Y0009672D01*
X0401015Y0009874D01*
X0401015Y0029126D01*
X0401013Y0029316D01*
X0401006Y0029506D01*
X0400994Y0029696D01*
X0400978Y0029886D01*
X0400958Y0030075D01*
X0400932Y0030264D01*
X0400903Y0030452D01*
X0400868Y0030639D01*
X0400829Y0030825D01*
X0400786Y0031010D01*
X0400738Y0031195D01*
X0400686Y0031378D01*
X0400630Y0031559D01*
X0400569Y0031739D01*
X0400503Y0031918D01*
X0400434Y0032095D01*
X0400360Y0032271D01*
X0400282Y0032444D01*
X0400199Y0032616D01*
X0400113Y0032785D01*
X0400023Y0032953D01*
X0399928Y0033118D01*
X0399830Y0033281D01*
X0399727Y0033441D01*
X0399621Y0033599D01*
X0399511Y0033754D01*
X0399398Y0033907D01*
X0399280Y0034057D01*
X0399159Y0034203D01*
X0399035Y0034347D01*
X0398907Y0034488D01*
X0398776Y0034626D01*
X0398641Y0034761D01*
X0398503Y0034892D01*
X0398362Y0035020D01*
X0398218Y0035144D01*
X0398072Y0035265D01*
X0397922Y0035383D01*
X0397769Y0035496D01*
X0397614Y0035606D01*
X0397456Y0035712D01*
X0397296Y0035815D01*
X0397133Y0035913D01*
X0396968Y0036008D01*
X0396800Y0036098D01*
X0396631Y0036184D01*
X0396459Y0036267D01*
X0396286Y0036345D01*
X0396110Y0036419D01*
X0395933Y0036488D01*
X0395754Y0036554D01*
X0395574Y0036615D01*
X0395393Y0036671D01*
X0395210Y0036723D01*
X0395025Y0036771D01*
X0394840Y0036814D01*
X0394654Y0036853D01*
X0394467Y0036888D01*
X0394279Y0036917D01*
X0394090Y0036943D01*
X0393901Y0036963D01*
X0393711Y0036979D01*
X0393521Y0036991D01*
X0393331Y0036998D01*
X0393141Y0037000D01*
X0393015Y0037000D02*
X0008897Y0037130D01*
X0008897Y0037129D02*
X0008706Y0037127D01*
X0008516Y0037120D01*
X0008326Y0037109D01*
X0008136Y0037093D01*
X0007947Y0037072D01*
X0007758Y0037047D01*
X0007570Y0037018D01*
X0007383Y0036983D01*
X0007197Y0036945D01*
X0007011Y0036902D01*
X0006827Y0036854D01*
X0006644Y0036802D01*
X0006462Y0036745D01*
X0006282Y0036684D01*
X0006103Y0036619D01*
X0005925Y0036550D01*
X0005750Y0036476D01*
X0005576Y0036398D01*
X0005405Y0036316D01*
X0005235Y0036229D01*
X0005067Y0036139D01*
X0004902Y0036045D01*
X0004739Y0035946D01*
X0004578Y0035844D01*
X0004420Y0035738D01*
X0004265Y0035628D01*
X0004112Y0035514D01*
X0003962Y0035397D01*
X0003815Y0035276D01*
X0003671Y0035151D01*
X0003530Y0035024D01*
X0003392Y0034892D01*
X0003258Y0034758D01*
X0003126Y0034620D01*
X0002998Y0034479D01*
X0002873Y0034335D01*
X0002752Y0034188D01*
X0002635Y0034038D01*
X0002521Y0033886D01*
X0002411Y0033730D01*
X0002305Y0033572D01*
X0002202Y0033412D01*
X0002104Y0033249D01*
X0002009Y0033084D01*
X0001918Y0032916D01*
X0001832Y0032747D01*
X0001750Y0032575D01*
X0001671Y0032402D01*
X0001597Y0032226D01*
X0001528Y0032049D01*
X0001462Y0031870D01*
X0001401Y0031690D01*
X0001345Y0031508D01*
X0001292Y0031325D01*
X0001244Y0031141D01*
X0001201Y0030955D01*
X0001162Y0030769D01*
X0001128Y0030582D01*
X0001098Y0030394D01*
X0001073Y0030205D01*
X0001052Y0030016D01*
X0001036Y0029826D01*
X0001024Y0029636D01*
X0001017Y0029446D01*
X0001015Y0029255D01*
X0001015Y0029256D02*
X0001015Y0009874D01*
X0001005Y0009672D01*
X0001001Y0009469D01*
X0001001Y0009266D01*
X0001006Y0009063D01*
X0001016Y0008861D01*
X0001031Y0008659D01*
X0001050Y0008457D01*
X0001075Y0008256D01*
X0001104Y0008055D01*
X0001139Y0007855D01*
X0001178Y0007657D01*
X0001222Y0007459D01*
X0001270Y0007262D01*
X0001324Y0007066D01*
X0001382Y0006872D01*
X0001445Y0006679D01*
X0001512Y0006488D01*
X0001584Y0006299D01*
X0001661Y0006111D01*
X0001742Y0005925D01*
X0001827Y0005741D01*
X0001917Y0005560D01*
X0002012Y0005380D01*
X0002110Y0005203D01*
X0002213Y0005028D01*
X0002320Y0004856D01*
X0002432Y0004687D01*
X0002547Y0004520D01*
X0002666Y0004356D01*
X0002789Y0004195D01*
X0002916Y0004037D01*
X0003047Y0003882D01*
X0003182Y0003731D01*
X0003320Y0003582D01*
X0003462Y0003437D01*
X0003607Y0003296D01*
X0003755Y0003158D01*
X0003907Y0003024D01*
X0004062Y0002893D01*
X0004220Y0002766D01*
X0004382Y0002643D01*
X0004546Y0002524D01*
X0004713Y0002409D01*
X0004882Y0002298D01*
X0005055Y0002191D01*
X0005229Y0002089D01*
X0005407Y0001990D01*
X0005586Y0001896D01*
X0005768Y0001807D01*
X0005952Y0001721D01*
X0006138Y0001641D01*
X0006326Y0001564D01*
X0006515Y0001493D01*
X0006707Y0001425D01*
X0006899Y0001363D01*
X0007094Y0001305D01*
X0007289Y0001252D01*
X0007486Y0001204D01*
X0007684Y0001160D01*
X0007883Y0001121D01*
X0008083Y0001087D01*
X0008284Y0001058D01*
X0008485Y0001034D01*
X0008687Y0001014D01*
X0008889Y0001000D01*
X0005288Y0022500D02*
X0005290Y0022562D01*
X0005296Y0022625D01*
X0005306Y0022686D01*
X0005320Y0022747D01*
X0005337Y0022807D01*
X0005358Y0022866D01*
X0005384Y0022923D01*
X0005412Y0022978D01*
X0005444Y0023032D01*
X0005480Y0023083D01*
X0005518Y0023133D01*
X0005560Y0023179D01*
X0005604Y0023223D01*
X0005652Y0023264D01*
X0005701Y0023302D01*
X0005753Y0023336D01*
X0005807Y0023367D01*
X0005863Y0023395D01*
X0005921Y0023419D01*
X0005980Y0023440D01*
X0006040Y0023456D01*
X0006101Y0023469D01*
X0006163Y0023478D01*
X0006225Y0023483D01*
X0006288Y0023484D01*
X0006350Y0023481D01*
X0006412Y0023474D01*
X0006474Y0023463D01*
X0006534Y0023448D01*
X0006594Y0023430D01*
X0006652Y0023408D01*
X0006709Y0023382D01*
X0006764Y0023352D01*
X0006817Y0023319D01*
X0006868Y0023283D01*
X0006916Y0023244D01*
X0006962Y0023201D01*
X0007005Y0023156D01*
X0007045Y0023108D01*
X0007082Y0023058D01*
X0007116Y0023005D01*
X0007147Y0022951D01*
X0007173Y0022895D01*
X0007197Y0022837D01*
X0007216Y0022777D01*
X0007232Y0022717D01*
X0007244Y0022655D01*
X0007252Y0022594D01*
X0007256Y0022531D01*
X0007256Y0022469D01*
X0007252Y0022406D01*
X0007244Y0022345D01*
X0007232Y0022283D01*
X0007216Y0022223D01*
X0007197Y0022163D01*
X0007173Y0022105D01*
X0007147Y0022049D01*
X0007116Y0021995D01*
X0007082Y0021942D01*
X0007045Y0021892D01*
X0007005Y0021844D01*
X0006962Y0021799D01*
X0006916Y0021756D01*
X0006868Y0021717D01*
X0006817Y0021681D01*
X0006764Y0021648D01*
X0006709Y0021618D01*
X0006652Y0021592D01*
X0006594Y0021570D01*
X0006534Y0021552D01*
X0006474Y0021537D01*
X0006412Y0021526D01*
X0006350Y0021519D01*
X0006288Y0021516D01*
X0006225Y0021517D01*
X0006163Y0021522D01*
X0006101Y0021531D01*
X0006040Y0021544D01*
X0005980Y0021560D01*
X0005921Y0021581D01*
X0005863Y0021605D01*
X0005807Y0021633D01*
X0005753Y0021664D01*
X0005701Y0021698D01*
X0005652Y0021736D01*
X0005604Y0021777D01*
X0005560Y0021821D01*
X0005518Y0021867D01*
X0005480Y0021917D01*
X0005444Y0021968D01*
X0005412Y0022022D01*
X0005384Y0022077D01*
X0005358Y0022134D01*
X0005337Y0022193D01*
X0005320Y0022253D01*
X0005306Y0022314D01*
X0005296Y0022375D01*
X0005290Y0022438D01*
X0005288Y0022500D01*
X0394574Y0022500D02*
X0394576Y0022562D01*
X0394582Y0022625D01*
X0394592Y0022686D01*
X0394606Y0022747D01*
X0394623Y0022807D01*
X0394644Y0022866D01*
X0394670Y0022923D01*
X0394698Y0022978D01*
X0394730Y0023032D01*
X0394766Y0023083D01*
X0394804Y0023133D01*
X0394846Y0023179D01*
X0394890Y0023223D01*
X0394938Y0023264D01*
X0394987Y0023302D01*
X0395039Y0023336D01*
X0395093Y0023367D01*
X0395149Y0023395D01*
X0395207Y0023419D01*
X0395266Y0023440D01*
X0395326Y0023456D01*
X0395387Y0023469D01*
X0395449Y0023478D01*
X0395511Y0023483D01*
X0395574Y0023484D01*
X0395636Y0023481D01*
X0395698Y0023474D01*
X0395760Y0023463D01*
X0395820Y0023448D01*
X0395880Y0023430D01*
X0395938Y0023408D01*
X0395995Y0023382D01*
X0396050Y0023352D01*
X0396103Y0023319D01*
X0396154Y0023283D01*
X0396202Y0023244D01*
X0396248Y0023201D01*
X0396291Y0023156D01*
X0396331Y0023108D01*
X0396368Y0023058D01*
X0396402Y0023005D01*
X0396433Y0022951D01*
X0396459Y0022895D01*
X0396483Y0022837D01*
X0396502Y0022777D01*
X0396518Y0022717D01*
X0396530Y0022655D01*
X0396538Y0022594D01*
X0396542Y0022531D01*
X0396542Y0022469D01*
X0396538Y0022406D01*
X0396530Y0022345D01*
X0396518Y0022283D01*
X0396502Y0022223D01*
X0396483Y0022163D01*
X0396459Y0022105D01*
X0396433Y0022049D01*
X0396402Y0021995D01*
X0396368Y0021942D01*
X0396331Y0021892D01*
X0396291Y0021844D01*
X0396248Y0021799D01*
X0396202Y0021756D01*
X0396154Y0021717D01*
X0396103Y0021681D01*
X0396050Y0021648D01*
X0395995Y0021618D01*
X0395938Y0021592D01*
X0395880Y0021570D01*
X0395820Y0021552D01*
X0395760Y0021537D01*
X0395698Y0021526D01*
X0395636Y0021519D01*
X0395574Y0021516D01*
X0395511Y0021517D01*
X0395449Y0021522D01*
X0395387Y0021531D01*
X0395326Y0021544D01*
X0395266Y0021560D01*
X0395207Y0021581D01*
X0395149Y0021605D01*
X0395093Y0021633D01*
X0395039Y0021664D01*
X0394987Y0021698D01*
X0394938Y0021736D01*
X0394890Y0021777D01*
X0394846Y0021821D01*
X0394804Y0021867D01*
X0394766Y0021917D01*
X0394730Y0021968D01*
X0394698Y0022022D01*
X0394670Y0022077D01*
X0394644Y0022134D01*
X0394623Y0022193D01*
X0394606Y0022253D01*
X0394592Y0022314D01*
X0394582Y0022375D01*
X0394576Y0022438D01*
X0394574Y0022500D01*
M02*
