G75*
%MOIN*%
%OFA0B0*%
%FSLAX25Y25*%
%IPPOS*%
%LPD*%
%AMOC8*
5,1,8,0,0,1.08239X$1,22.5*
%
%ADD10R,0.05000X0.13780*%
%ADD11C,0.01600*%
%ADD12C,0.05000*%
D10*
X0006300Y0012600D03*
X0016300Y0012600D03*
X0026300Y0012600D03*
X0036300Y0012600D03*
X0046300Y0012600D03*
X0046300Y0047200D03*
X0036300Y0047200D03*
X0026300Y0047200D03*
X0016300Y0047200D03*
X0006300Y0047200D03*
X0006300Y0061900D03*
X0016300Y0061900D03*
X0026300Y0061900D03*
X0036300Y0061900D03*
X0046300Y0061900D03*
D11*
X0046100Y0049000D02*
X0046300Y0047200D01*
X0036400Y0047500D02*
X0036300Y0047200D01*
X0026300Y0047200D02*
X0026100Y0049000D01*
X0016300Y0047200D02*
X0016100Y0049000D01*
X0006300Y0061900D02*
X0006100Y0064100D01*
D12*
X0006300Y0061900D02*
X0006300Y0047200D01*
X0006300Y0012600D01*
X0016300Y0012600D02*
X0016300Y0047200D01*
X0016300Y0061900D01*
X0026300Y0061900D02*
X0026300Y0047200D01*
X0026300Y0012600D01*
X0036300Y0012600D02*
X0036300Y0047200D01*
X0036300Y0061900D01*
X0046300Y0061900D02*
X0046300Y0047200D01*
X0046300Y0012600D01*
M02*
